<svg width="820" height="240" viewBox="0 0 820 240" fill="none" xmlns="http://www.w3.org/2000/svg">
<g clip-path="url(#clip0_16390_7078)">
<path d="M90.6604 82.2545H101.518V10.8249H112.085V0.553467H80.0933V10.8249H90.6604V82.2545Z" fill="white"/>
<path d="M194.784 82.2545H221.647V71.9831H205.641V45.9521H221.647V35.9158H205.641V10.8249H221.647V0.553467H194.784V82.2545Z" fill="white"/>
<path d="M27.4164 40.8233C31.0379 38.9502 32.5583 35.8052 32.5583 30.8976V13.3962C32.5583 4.98413 29.8768 0.553467 18.5563 0.553467H0.00683594V82.2475H19.2543C30.4504 82.2475 33.0214 76.7663 33.0214 68.3681V50.9703C33.0214 45.9521 31.3834 42.6827 27.4164 40.8233ZM10.8504 10.8318H18.2039C21.4728 10.8318 21.9359 12.5805 21.9359 16.078V30.0958C21.9359 33.7039 21.4728 35.9227 18.0795 35.9227H10.8504V10.8318ZM22.1708 68.133C22.1708 70.7043 21.2379 71.99 18.4319 71.99H10.8573V45.9521H18.2108C21.2448 45.9521 22.1778 47.5903 22.1778 50.2722V68.133H22.1708Z" fill="white"/>
<path d="M129.846 35.9158H126.239V82.2545H136.377V35.9158H140.697V10.8249H151.264V0.553467H119.279V10.8249H129.846V35.9158Z" fill="white"/>
<path d="M186.56 71.9831H166.953V35.9158H170.553V0.553467H159.703V35.9158H156.095V82.2545H186.56V71.9831Z" fill="white"/>
<path d="M79.8377 61.7947H76.2301L69.7958 22.852L66.1122 0.546631H52.3452L48.6615 22.852L38.8408 82.2407H49.8088L52.6769 61.7878H69.3604L72.2285 82.2407H83.1965L79.8239 61.7878L79.8377 61.7947ZM54.0937 51.7584L58.1436 22.852L59.2218 15.1934L60.2999 22.852L64.3637 51.7584H54.0937Z" fill="white"/>
<path d="M369.193 71.9831H349.579V35.9158H353.18V0.553467H342.329V35.9158H338.729V82.2545H369.193V71.9831Z" fill="white"/>
<path d="M412.83 1.28615L413.515 4.01643H414.192L414.876 1.28615V4.01643H415.533V0.553467H414.475L413.86 2.91741L413.224 0.553467H412.181V4.01643H412.83V1.28615Z" fill="white"/>
<path d="M423.377 82.2544H425.471V79.2684H423.377C422.893 79.2684 422.665 79.061 422.644 78.5564V74.6926C422.644 74.2088 422.872 73.9599 423.356 73.9599H424.047C424.462 73.9599 424.6 74.1465 425.084 74.6235L432.783 82.2614H435.775V80.9964L433.847 79.068C433.688 78.909 433.778 78.674 433.964 78.674H435.782V70.9946H432.79V78.0519L426.376 71.7066C425.782 71.1121 425.042 70.9946 423.867 70.9946H423.363C420.785 70.9946 419.686 72.2803 419.686 74.6995V78.5634C419.686 81.1623 420.971 82.2683 423.39 82.2683L423.377 82.2544Z" fill="white"/>
<path d="M432.064 47.5557H423.349C420.778 47.5557 419.679 48.8206 419.679 51.2398V54.8894C419.679 57.4884 420.944 58.5943 423.349 58.5943H432.064C434.483 58.5943 435.768 57.4953 435.768 54.8894V51.2398C435.768 48.8206 434.669 47.5557 432.064 47.5557ZM432.776 54.8894C432.776 55.394 432.548 55.6083 432.064 55.6083H423.349C422.9 55.6083 422.637 55.394 422.637 54.8894V51.2398C422.637 50.7767 422.865 50.521 423.349 50.521H432.064C432.568 50.521 432.776 50.7767 432.776 51.2398V54.8894Z" fill="white"/>
<path d="M432.804 24.2136L430.868 25.9831C430.703 26.1283 430.474 26.0315 430.474 25.8725V24.2136H419.672V27.1858L430.474 35.2246H433.453V27.1858H435.755V24.2136H432.797H432.804ZM430.481 31.5266L424.662 27.1858H430.481V31.5266Z" fill="white"/>
<path d="M423.377 11.8201H425.471V8.83408H423.377C422.893 8.83408 422.665 8.62672 422.644 8.12214V4.25828C422.644 3.77443 422.872 3.52558 423.356 3.52558H424.047C424.462 3.52558 424.6 3.71222 425.084 4.18915L432.783 11.827H435.775V10.5621L433.847 8.63363C433.688 8.47465 433.778 8.23963 433.964 8.23963H435.782V0.560303H432.79V7.61755L426.376 1.27225C425.782 0.677808 425.042 0.560303 423.867 0.560303H423.363C420.785 0.560303 419.686 1.84594 419.686 4.26518V8.12904C419.686 10.728 420.971 11.8339 423.39 11.8339L423.377 11.8201Z" fill="white"/>
<path d="M235.228 82.2545H246.078V45.9521H262.091V35.9158H246.078V10.8249H262.091V0.553467H235.228V82.2545Z" fill="white"/>
<path d="M328.03 71.9831H308.416V45.9521H328.03V35.9158H312.017V10.8249H328.03V0.553467H301.167V45.9521H297.566V82.2545H328.03V71.9831Z" fill="white"/>
<path d="M285.05 0.553467H274.2V82.2545H285.05V0.553467Z" fill="white"/>
<path d="M410.017 4.01643H410.722V1.141H411.745V0.553467H408.987V1.141H410.017V4.01643Z" fill="white"/>
<path d="M394.523 0.55355H375.973V82.2476H394.758C406.189 82.2476 408.988 77.0013 408.988 67.8912V14.9031C408.988 6.02794 406.078 0.546631 394.523 0.546631V0.55355ZM398.144 68.0156C398.144 70.5731 397.211 71.9831 394.288 71.9831H386.831V10.7696H394.17C397.087 10.7696 398.137 12.0553 398.137 14.8616V68.0087L398.144 68.0156Z" fill="white"/>
<path d="M570.114 50.7353V50.8182C570.114 50.915 570.134 51.0049 570.356 51.0049C570.459 51.0049 570.57 50.9496 570.687 50.8321L575.083 46.5397H580.784L576.189 33.856L570.121 50.7353H570.114Z" fill="#F0B469"/>
<path d="M645.231 29.6121H653.953C654.865 29.6121 655.612 30.3517 655.612 31.271V51.551C655.612 52.4634 654.872 53.2099 653.953 53.2099H645.231C644.319 53.2099 643.572 52.4634 643.572 51.551V31.271C643.572 30.3586 644.312 29.6121 645.231 29.6121Z" fill="#F0B469"/>
<path d="M749.32 29.6121H740.598C739.682 29.6121 738.939 30.3548 738.939 31.271V51.551C738.939 52.4672 739.682 53.2099 740.598 53.2099H749.32C750.236 53.2099 750.978 52.4672 750.978 51.551V31.271C750.978 30.3548 750.236 29.6121 749.32 29.6121Z" fill="#F0B469"/>
<path d="M462.542 0.553467V82.2545H820V0.553467H462.542ZM514.742 36.0264H508.031V31.2639C508.031 30.1511 507.492 29.6119 506.379 29.6119H497.651C496.538 29.6119 495.999 30.1511 495.999 31.2639V33.5242C495.999 34.4435 496.538 35.2453 497.595 35.8881C498.673 36.5517 500.45 37.3327 502.848 38.2382C505.301 39.1575 507.333 40.0284 508.902 40.8302C510.498 41.6321 511.874 42.7449 513.021 44.1342C514.168 45.5443 514.742 47.2792 514.742 49.2976V51.5578C514.742 54.3019 514.009 56.4101 512.586 57.8202C511.162 59.2303 509.054 59.9215 506.379 59.9215H497.651C494.907 59.9215 492.785 59.2095 491.389 57.7649C489.979 56.3203 489.267 54.2328 489.267 51.5578V46.7954H495.999V51.5578C495.999 52.6569 496.538 53.2098 497.651 53.2098H506.379C507.492 53.2098 508.031 52.6569 508.031 51.5578V49.2976C508.031 48.3921 507.513 47.6456 506.504 47.0373C505.446 46.4083 503.684 45.6134 501.286 44.6872C498.798 43.7333 496.745 42.8417 495.183 42.0122C493.601 41.1966 492.212 40.0837 491.044 38.6737C489.876 37.2843 489.267 35.5425 489.267 33.5242V31.2639C489.267 28.5889 489.979 26.5015 491.389 25.0569C492.778 23.633 494.9 22.9003 497.651 22.9003H506.379C509.13 22.9003 511.231 23.633 512.641 25.0569C514.051 26.5015 514.742 28.5889 514.742 31.2639V36.0264ZM550.403 29.6119H531.66V41.9431C531.66 42.1021 531.695 42.2196 532.006 42.2196C532.13 42.2196 532.248 42.185 532.338 42.0952L536.788 38.0101H547.203V44.7425H531.66V53.2098H550.403V59.9215H524.929V22.9003H550.403V29.6119ZM585.512 59.9215L585.477 59.8524L583.093 53.2582H569.146L566.727 59.9215H559.616L559.685 59.7487L572.954 22.9003H579.285L579.32 22.9694L592.623 59.9215H585.512ZM626.336 36.0264H619.625V31.2639C619.625 30.1511 619.086 29.6119 617.953 29.6119H609.245C608.111 29.6119 607.593 30.1511 607.593 31.2639V33.5242C607.593 34.4435 608.111 35.2453 609.176 35.8881C610.268 36.5517 612.044 37.3327 614.442 38.2382C616.875 39.1575 618.927 40.0284 620.496 40.8302C622.079 41.6321 623.468 42.7449 624.601 44.1342C625.769 45.5443 626.343 47.2792 626.343 49.2976V51.5578C626.343 54.3019 625.61 56.4101 624.173 57.8202C622.749 59.2303 620.662 59.9215 617.967 59.9215H609.259C606.494 59.9215 604.393 59.2095 602.997 57.7649C601.587 56.3203 600.875 54.2328 600.875 51.5578V46.7954H607.607V51.5578C607.607 52.6569 608.125 53.2098 609.259 53.2098H617.967C619.1 53.2098 619.639 52.6569 619.639 51.5578V49.2976C619.639 48.3783 619.135 47.6663 618.091 47.0373C617.047 46.4083 615.271 45.6134 612.894 44.6872C610.406 43.7333 608.353 42.8417 606.771 42.0122C605.188 41.1966 603.813 40.0837 602.652 38.6737C601.47 37.2843 600.875 35.5425 600.875 33.5242V31.2639C600.875 28.5889 601.587 26.5015 602.997 25.0569C604.386 23.633 606.494 22.9003 609.259 22.9003H617.967C620.731 22.9003 622.832 23.633 624.242 25.0569C625.631 26.5015 626.343 28.5889 626.343 31.2639V36.0264H626.336ZM662.239 51.5578C662.239 54.3019 661.507 56.4101 660.069 57.8202C658.646 59.2303 656.558 59.9215 653.863 59.9215H645.155C642.391 59.9215 640.29 59.2095 638.894 57.7649C637.484 56.3203 636.772 54.2328 636.772 51.5578V31.2639C636.772 28.5889 637.484 26.5015 638.894 25.0569C640.283 23.633 642.391 22.9003 645.155 22.9003H653.863C656.558 22.9003 658.646 23.6122 660.069 25.0015C661.514 26.4116 662.239 28.5129 662.239 31.2639V51.5578ZM704.128 59.9215H697.244L679.441 33.4205V59.9215H672.71V30.1511H676.255C676.393 30.1511 676.532 30.0958 676.635 30.0128C676.76 29.923 676.808 29.8193 676.808 29.7018C676.808 29.5428 676.718 29.3354 676.566 29.0728L672.599 22.9003H680.409L680.464 22.9556L697.555 48.4474L697.396 22.9003H704.128V59.9215ZM757.613 51.5578C757.613 54.3019 756.881 56.4101 755.443 57.8202C753.999 59.2303 751.911 59.9215 749.237 59.9215H740.508C737.757 59.9215 735.656 59.2095 734.247 57.7649C732.837 56.3203 732.146 54.2328 732.146 51.5578V31.2639C732.146 28.5889 732.844 26.5015 734.247 25.0569C735.656 23.633 737.757 22.9003 740.508 22.9003H749.237C751.911 22.9003 753.999 23.6122 755.443 25.0015C756.887 26.4116 757.613 28.5129 757.613 31.2639V51.5578ZM793.081 29.7156H787.677C787.504 29.7156 787.379 29.84 787.31 30.0474C787.241 30.2548 787.276 30.4276 787.414 30.5658L790.593 34.0633L775.672 59.8869L767.676 59.9422L785.189 29.7156H767.676V22.9003H793.081V29.7156Z" fill="#F0B469"/>
<path d="M0.00691789 124.743V109.253H57.6458V124.743H36.6291V193.318H21.0168V136.756L30.2639 126.665C30.5058 126.423 30.6233 126.105 30.6233 125.704C30.6233 124.985 30.3054 124.626 29.6626 124.626L0 124.743H0.00691789Z" fill="white"/>
<path d="M66.05 109.253H81.6623V173.985C81.6623 175.264 81.9595 176.204 82.5607 176.805C83.162 177.406 84.1019 177.704 85.3805 177.704H104.352C105.63 177.704 106.57 177.406 107.171 176.805C107.773 176.204 108.07 175.264 108.07 173.985L108.187 109.253H123.675V173.985C123.675 180.627 122.051 185.514 118.81 188.639C115.568 191.763 110.744 193.325 104.338 193.325H85.3667C78.7251 193.325 73.8389 191.701 70.7151 188.459C67.5912 185.217 66.0293 180.392 66.0293 173.985V109.253H66.05Z" fill="white"/>
<path d="M136.896 193.318V136.991L146.143 126.9C146.385 126.658 146.502 126.34 146.502 125.939C146.502 125.22 146.184 124.861 145.541 124.861H136.896V109.371H175.322C181.728 109.371 186.525 110.912 189.731 113.995C192.931 117.078 194.534 121.944 194.534 128.586V139.756C194.534 149.606 190.809 155.689 183.366 158.011L196.214 193.318H179.641L167.153 159.089H152.501V193.318H136.889H136.896ZM175.322 143.482C177.803 143.482 179.047 142.245 179.047 139.756V128.586C179.047 126.105 177.803 124.861 175.322 124.861H152.508V143.475H175.322V143.482Z" fill="white"/>
<path d="M209.421 193.318V125.469H216.864C217.901 125.469 218.426 125.027 218.426 124.149C218.426 123.907 218.226 123.388 217.825 122.587L209.421 109.253H227.189L265.733 166.658L265.249 109.253H280.861V193.318H265.014L225.026 133.515V193.318H209.414H209.421Z" fill="white"/>
<path d="M309.682 193.318H294.069V109.253H309.682V193.318Z" fill="white"/>
<path d="M322.888 193.318V125.469H330.332C331.368 125.469 331.893 125.027 331.893 124.149C331.893 123.907 331.693 123.388 331.292 122.587L322.888 109.253H340.657L379.2 166.658L378.716 109.253H394.329V193.318H378.481L338.494 133.515V193.318H322.881H322.888Z" fill="white"/>
<path d="M426.873 193.318C420.232 193.318 415.346 191.694 412.222 188.452C409.098 185.21 407.536 180.386 407.536 173.978V128.462C407.536 122.054 409.098 117.257 412.222 114.05C415.346 110.85 420.225 109.246 426.873 109.246H445.969C452.376 109.246 457.172 110.788 460.379 113.87C463.579 116.953 465.182 121.819 465.182 128.462V135.547H449.694V128.462C449.694 125.98 448.45 124.736 445.969 124.736H426.873C424.392 124.736 423.148 125.98 423.148 128.462V173.978C423.148 175.257 423.446 176.197 424.047 176.798C424.648 177.399 425.588 177.697 426.867 177.697H445.962C448.443 177.697 449.687 176.459 449.687 173.971V150.428C449.687 149.786 449.328 149.468 448.609 149.468C448.208 149.468 447.89 149.585 447.648 149.827L437.565 159.076H431.801V143.461H465.065L465.182 173.964C465.182 180.372 463.641 185.189 460.558 188.438C457.476 191.68 452.611 193.304 445.969 193.304H426.873V193.318Z" fill="white"/>
<path d="M508.404 193.201V136.874L517.651 126.789C517.893 126.547 518.011 126.229 518.011 125.828C518.011 125.11 517.693 124.75 517.05 124.75H508.404V109.26H546.83C553.237 109.26 558.033 110.802 561.24 113.884C564.44 116.967 566.043 121.833 566.043 128.476V139.521C566.043 145.929 564.502 150.747 561.42 153.995C558.337 157.237 553.472 158.861 546.83 158.861H524.017V193.208H508.404V193.201ZM546.83 143.24C549.311 143.24 550.555 142.003 550.555 139.514V128.469C550.555 125.987 549.311 124.743 546.83 124.743H524.017V143.24H546.83Z" fill="white"/>
<path d="M581.047 128.469C581.047 122.061 582.609 117.264 585.733 114.057C588.857 110.857 593.736 109.253 600.385 109.253H619.48C625.887 109.253 630.683 110.795 633.89 113.877C637.09 116.96 638.693 121.826 638.693 128.469V173.985C638.693 180.627 637.09 185.514 633.89 188.639C630.69 191.763 625.887 193.325 619.48 193.325H600.385C593.743 193.325 588.857 191.701 585.733 188.459C582.609 185.217 581.047 180.392 581.047 173.985V128.469ZM596.66 173.985C596.66 175.264 596.957 176.204 597.558 176.805C598.159 177.406 599.099 177.704 600.378 177.704H619.473C621.954 177.704 623.198 176.466 623.198 173.978V128.462C623.198 125.98 621.954 124.736 619.473 124.736H600.378C597.897 124.736 596.653 125.98 596.653 128.462V173.978L596.66 173.985Z" fill="white"/>
<path d="M669.303 193.318H653.69V109.253H669.303V193.318Z" fill="white"/>
<path d="M682.51 193.318V125.469H689.953C690.99 125.469 691.515 125.027 691.515 124.149C691.515 123.907 691.315 123.388 690.914 122.587L682.51 109.253H700.278L738.822 166.658L738.338 109.253H753.95V193.318H738.103L698.115 133.515V193.318H682.503H682.51Z" fill="white"/>
<path d="M762.361 124.743V109.253H820V124.743H798.984V193.318H783.371V136.756L792.618 126.665C792.86 126.423 792.978 126.105 792.978 125.704C792.978 124.985 792.66 124.626 792.017 124.626L762.354 124.743H762.361Z" fill="white"/>
</g>
<defs>
<clipPath id="clip0_16390_7078">
<rect width="820" height="193" fill="white"/>
</clipPath>
</defs>
</svg>
